<svg xmlns="http://www.w3.org/2000/svg" xml:space="preserve" id="Layer_1" width="600" height="500" x="0" y="0" version="1.1"><style id="style1" type="text/css">.st0{fill:url(#SVGID_1_)}.st1{fill:url(#SVGID_00000123405442604648655120000000636425700907447225_)}.st2{fill:#fff}.st3{fill:#58c142}.st4{fill:url(#SVGID_00000100361222533905006500000012948355425597525920_)}.st5{fill:url(#SVGID_00000039098984540155201650000005728924474174226367_)}.st6{fill:url(#SVGID_00000065066116668922763670000009055193333651929737_)}.st7{fill:url(#SVGID_00000046310373342220590360000000833566212213317053_)}.st8{fill:url(#SVGID_00000067914870925445215340000010520730682335284873_)}.st9{fill:url(#SVGID_00000139972009352615321800000011748188400644384138_)}.st10{fill:url(#SVGID_00000137813723102203423940000002281677718566419372_)}.st11{fill:url(#SVGID_00000117658585713214366330000001759073570098750902_)}.st12{fill:url(#SVGID_00000075146307645666362690000001517567647835044244_)}.st13{fill:url(#SVGID_00000169553343881037582000000012883033354483876241_)}</style><path id="path1" d="M218.2 183.2c51 0 99.3 21.9 138.2 39.5 21.2 9.6 43.1 19.5 53.4 19.5 8 0 21.5 0 30.5-42.1l4.6-21.3 21.6 3.1 66.7 9.6c11.2-27.9 18.8-61.6 22.9-101.2L426.4 71.7c-8.6 40.3-24.5 60.5-53.3 60.5-37.4 0-113.8-59.1-191.6-59.1-105.1 0-158.3 66.3-174.2 203.1l46 6.7c7.6-15.6 16.4-29.3 26.4-41.2 32.9-38.8 79.5-58.5 138.5-58.5z"/><path id="path2" d="M409.8 265.6c-37.4 0-113.8-59.1-191.6-59.1-105.1 0-158.4 66.3-174.3 203.1l129.6 18.7c8.7-41.8 24.5-60.5 53.3-60.5 38.9 0 112.3 59.1 191.6 59.1 105.1 0 159.9-66.3 174.3-203.1l-129.6-18.7c-8.7 40.3-24.5 60.5-53.3 60.5z"/></svg>